<?xml version="1.0" encoding="UTF-8" standalone="no"?>
<svg
   id="svg4"
   version="1.1"
   preserveAspectRatio="xMidYMid meet"
   viewBox="0 0 600 600"
   height="600"
   width="600"
   y="0px"
   x="0px"
   sodipodi:docname="menu-gaf.svg"
   inkscape:version="1.4.3 (0d15f75042, 2025-12-25)"
   inkscape:export-filename="menu-gaf-48.png"
   inkscape:export-xdpi="7.6799998"
   inkscape:export-ydpi="7.6799998"
   xml:space="preserve"
   xmlns:inkscape="http://www.inkscape.org/namespaces/inkscape"
   xmlns:sodipodi="http://sodipodi.sourceforge.net/DTD/sodipodi-0.dtd"
   xmlns="http://www.w3.org/2000/svg"
   xmlns:svg="http://www.w3.org/2000/svg"
   xmlns:rdf="http://www.w3.org/1999/02/22-rdf-syntax-ns#"
   xmlns:cc="http://creativecommons.org/ns#"
   xmlns:dc="http://purl.org/dc/elements/1.1/"><sodipodi:namedview
     id="namedview25"
     pagecolor="#ffffff"
     bordercolor="#000000"
     borderopacity="0.25"
     inkscape:showpageshadow="2"
     inkscape:pageopacity="0.0"
     inkscape:pagecheckerboard="true"
     inkscape:deskcolor="#d1d1d1"
     showgrid="false"
     inkscape:zoom="1.0229478"
     inkscape:cx="228.26189"
     inkscape:cy="386.62774"
     inkscape:window-width="1853"
     inkscape:window-height="1011"
     inkscape:window-x="0"
     inkscape:window-y="0"
     inkscape:window-maximized="1"
     inkscape:current-layer="svg4"
     showguides="true"><sodipodi:guide
       position="300,300"
       orientation="-1,0"
       id="guide5"
       inkscape:locked="false"
       inkscape:label=""
       inkscape:color="rgb(0,134,229)" /><sodipodi:guide
       position="300,300"
       orientation="0,1"
       id="guide6"
       inkscape:locked="false"
       inkscape:label=""
       inkscape:color="rgb(0,134,229)" /></sodipodi:namedview><metadata
     id="metadata10"><rdf:RDF><cc:Work
         rdf:about=""><dc:format>image/svg+xml</dc:format><dc:type
           rdf:resource="http://purl.org/dc/dcmitype/StillImage" /></cc:Work></rdf:RDF></metadata><defs
     id="defs8" /><g
     id="g1"><path
       d="m 480.48137,337.68956 c -3.05084,7.29189 -11.26408,22.63282 -25.02078,23.29915 -13.75673,0.66632 -25.2792,-3.03992 -29.21717,-34.89048 -1.44804,-11.712 -1.23688,-12.51164 -1.18152,-26.0979 0.76361,-13.58625 0.55245,-14.3859 2.00049,-26.09791 3.93797,-31.85055 15.46046,-35.55678 29.21717,-34.89048 13.7567,0.66633 21.96994,16.00726 25.02078,23.29917 3.05084,7.29188 4.02581,18.60437 5.02255,38.40941 -1.81571,19.80504 -2.7907,29.67715 -5.84152,36.96904 z"
       style="fill:none;stroke:#ffffff;stroke-width:13.8917;stroke-linecap:round;stroke-linejoin:round;stroke-dasharray:none"
       id="path1-9-2"
       sodipodi:nodetypes="ssscssscs" /><path
       d="m 262.31111,480.48137 c -7.29191,-3.05084 -22.63284,-11.26408 -23.29917,-25.02078 -0.6663,-13.75673 3.03993,-25.2792 34.89048,-29.21717 11.71201,-1.44804 12.51166,-1.23688 26.09791,-1.18152 13.58626,0.76361 14.3859,0.55245 26.0979,2.00049 31.85056,3.93797 35.5568,15.46046 34.89048,29.21717 -0.66633,13.7567 -16.00726,21.96994 -23.29915,25.02078 -7.29189,3.05084 -18.60437,4.02581 -38.40942,5.02255 -19.80504,-1.81571 -29.67715,-2.7907 -36.96903,-5.84152 z"
       style="fill:none;stroke:#ffffff;stroke-width:13.8917;stroke-linecap:round;stroke-linejoin:round;stroke-dasharray:none"
       id="path1-9-2-3"
       sodipodi:nodetypes="ssscssscs" /><path
       d="m 262.31111,119.51922 c -7.29191,3.05085 -22.63284,11.26408 -23.29917,25.02078 -0.6663,13.75672 3.03993,25.2792 34.89048,29.21717 11.71201,1.44805 12.51166,1.23688 26.09791,1.18152 13.58626,-0.76362 14.3859,-0.55245 26.0979,-2.00049 31.85056,-3.93797 35.5568,-15.46045 34.89048,-29.21717 -0.66633,-13.7567 -16.00726,-21.96994 -23.29915,-25.02078 -7.29189,-3.05083 -18.60437,-4.02581 -38.40942,-5.02255 -19.80504,1.81571 -29.67715,2.79069 -36.96903,5.84152 z"
       style="fill:none;stroke:#ffffff;stroke-width:13.8917;stroke-linecap:round;stroke-linejoin:round;stroke-dasharray:none"
       id="path1-9-2-3-0"
       sodipodi:nodetypes="ssscssscs" /><path
       d="m 119.51922,337.68956 c 3.05085,7.29189 11.26408,22.63282 25.02078,23.29915 13.75672,0.66632 25.2792,-3.03992 29.21717,-34.89048 1.44805,-11.712 1.23688,-12.51164 1.18152,-26.0979 -0.76362,-13.58625 -0.55245,-14.3859 -2.00049,-26.09791 -3.93797,-31.85055 -15.46045,-35.55678 -29.21717,-34.89048 -13.7567,0.66633 -21.96994,16.00726 -25.02078,23.29917 -3.05083,7.29188 -4.02581,18.60437 -5.02255,38.40941 1.81571,19.80504 2.79069,29.67715 5.84152,36.96904 z"
       style="fill:none;stroke:#ffffff;stroke-width:13.8917;stroke-linecap:round;stroke-linejoin:round;stroke-dasharray:none"
       id="path1-9-2-0"
       sodipodi:nodetypes="ssscssscs" /><rect
       style="fill:none;stroke:#ffffff;stroke-width:13.8917;stroke-linecap:round;stroke-linejoin:round;stroke-dasharray:none"
       id="rect1"
       width="87.486832"
       height="87.486832"
       x="256.2569"
       y="256.2569"
       ry="43.743416" /><rect
       style="fill:none;stroke:#ffffff;stroke-width:13.8917;stroke-linecap:round;stroke-linejoin:round;stroke-dasharray:none"
       id="rect1-6"
       width="184.66374"
       height="184.66374"
       x="207.66846"
       y="207.66846"
       ry="76.244888" /><ellipse
       style="fill:none;stroke:#ffffff;stroke-width:13.8917;stroke-linecap:round;stroke-linejoin:round;stroke-dasharray:none"
       id="path5"
       cx="540.26141"
       cy="300.00034"
       rx="17.993608"
       ry="35.987217" /><ellipse
       style="fill:none;stroke:#ffffff;stroke-width:13.8917;stroke-linecap:round;stroke-linejoin:round;stroke-dasharray:none"
       id="path5-2"
       cx="59.738613"
       cy="300.00034"
       rx="17.993608"
       ry="35.987217" /><ellipse
       style="fill:none;stroke:#ffffff;stroke-width:13.8917;stroke-linecap:round;stroke-linejoin:round;stroke-dasharray:none"
       id="path5-1"
       cx="540.26141"
       cy="-293.61212"
       rx="17.993608"
       ry="35.987217"
       transform="rotate(90)" /><ellipse
       style="fill:none;stroke:#ffffff;stroke-width:13.8917;stroke-linecap:round;stroke-linejoin:round;stroke-dasharray:none"
       id="path5-1-7"
       cx="59.738613"
       cy="-300.00034"
       rx="17.993608"
       ry="35.987217"
       transform="rotate(90)" /></g></svg>
